<?xml version="1.0" encoding="UTF-8" standalone="no"?>
<!DOCTYPE svg PUBLIC "-//W3C//DTD SVG 1.1//EN" "http://www.w3.org/Graphics/SVG/1.1/DTD/svg11.dtd">
<svg width="100%" height="100%" viewBox="0 0 50 20" version="1.1" xmlns="http://www.w3.org/2000/svg" xmlns:xlink="http://www.w3.org/1999/xlink" xml:space="preserve" xmlns:serif="http://www.serif.com/" style="fill-rule:evenodd;clip-rule:evenodd;stroke-linejoin:round;stroke-miterlimit:2;">
    <g transform="matrix(1,0,0,1,-245,-115)">
        <g transform="matrix(0.333333,0,0,0.333333,228.333,85)">
            <path d="M87.5,117.5C85.899,119.101 83.728,120 81.465,120C80.124,120 78.629,120 77.414,120C77.01,120 76.645,120.244 76.49,120.617C76.336,120.991 76.421,121.421 76.707,121.707C80.123,125.123 87.832,132.832 92.071,137.071C93.946,138.946 96.49,140 99.142,140C105.094,140 115.71,140 119,140C119.552,140 120,140.448 120,141C120,142.505 120,145.399 120,147.5C120,148.163 119.737,148.799 119.268,149.268C118.799,149.737 118.163,150 117.5,150C112.34,150 100.467,150 94.142,150C91.49,150 88.946,148.946 87.071,147.071C80.774,140.774 66.141,126.141 61.464,121.464C60.527,120.527 60,119.255 60,117.929C60,116.352 60,114.174 60,112.5C60,111.119 61.119,110 62.5,110C66.342,110 73.658,110 77.5,110C78.881,110 80,108.881 80,107.5C80,105.973 80,104.027 80,102.5C80,101.837 79.737,101.201 79.268,100.732C78.799,100.263 78.163,100 77.5,100C71.254,100 55.171,100 51,100C50.448,100 50,99.552 50,99C50,98.042 50,96.521 50,95C50,93.674 50.527,92.402 51.464,91.464C52.402,90.527 53.674,90 55,90C62.174,90 75.209,90 81.465,90C83.728,90 85.899,90.899 87.5,92.5C87.5,92.5 87.5,92.5 87.5,92.5C89.101,94.101 90,96.272 90,98.535C90,102.177 90,107.823 90,111.465C90,113.728 89.101,115.899 87.5,117.5C87.5,117.5 87.5,117.5 87.5,117.5ZM125,141C125,140.448 125.448,140 126,140L134,140C134.552,140 135,140.448 135,141L135,149C135,149.552 134.552,150 134,150L126,150C125.448,150 125,149.552 125,149L125,141ZM59,130C59.552,130 60,130.448 60,131C60,134.414 60,145.586 60,149C60,149.552 59.552,150 59,150C57.495,150 54.601,150 52.5,150C51.119,150 50,148.881 50,147.5C50,143.067 50,134.013 50,131C50,130.448 50.448,130 51,130C52.916,130 57.084,130 59,130ZM150,95C150,92.239 152.239,90 155,90L197.5,90C198.881,90 200,91.119 200,92.5C200,94.601 200,97.495 200,99C200,99.552 199.552,100 199,100C193.735,100 169.194,100 161.992,100C161.463,100 160.957,100.21 160.583,100.583C160.21,100.957 160,101.463 160,101.992C160,102.029 160,102.066 160,102.102C160,102.632 160.21,103.14 160.584,103.514C163.887,106.825 180.313,123.29 187.079,130.073C188.95,131.947 190,134.487 190,137.135C190,140.024 190,143.604 190,145C190,147.761 187.761,150 185,150L142.5,150C141.119,150 140,148.881 140,147.5C140,145.399 140,142.505 140,141C140,140.448 140.448,140 141,140C146.263,140 170.788,140 178,140C178.53,140 179.039,139.789 179.414,139.414C179.789,139.039 180,138.53 180,138C180,137.966 180,137.932 180,137.898C180,137.368 179.79,136.86 179.416,136.486C176.113,133.175 159.687,116.71 152.921,109.927C151.05,108.053 150,105.513 150,102.865C150,99.394 150,95 150,95Z" style="fill:white;"/>
        </g>
    </g>
</svg>
